<?xml version="1.0" standalone="no"?>
<!DOCTYPE svg PUBLIC "-//W3C//DTD SVG 1.1//EN" "http://www.w3.org/Graphics/SVG/1.1/DTD/svg11.dtd" >
<svg xmlns="http://www.w3.org/2000/svg" xmlns:xlink="http://www.w3.org/1999/xlink" version="1.1">
<metadata></metadata>
<defs>
<font id="alegreya_sansregular" horiz-adv-x="983" >
<font-face units-per-em="2048" ascent="1638" descent="-410" />
<missing-glyph horiz-adv-x="337" />
<glyph unicode="&#xa8;I" horiz-adv-x="548" d="M55 1614q0 41 24.5 66.5t67.5 25.5q41 0 63.5 -22.5t22.5 -63.5q0 -43 -24.5 -69.5t-67.5 -26.5q-41 0 -63.5 24.5t-22.5 65.5zM190 0l11 395l-11 918h168l-10 -903l8 -410h-166zM317 1614q0 41 25 66.5t68 25.5q41 0 63.5 -22.5t22.5 -63.5q0 -43 -25 -69.5t-68 -26.5 q-41 0 -63.5 24.5t-22.5 65.5z" />
<glyph unicode="&#xa8;O" horiz-adv-x="1300" d="M78 645q0 328 152.5 504t437.5 176q268 0 412.5 -166t144.5 -477q0 -334 -153.5 -516t-436.5 -182q-266 0 -411.5 172t-145.5 489zM246 666q0 -545 399 -545q410 0 410 532q0 272 -99.5 404.5t-302.5 132.5q-407 0 -407 -524zM406 1614q0 41 24.5 66.5t67.5 25.5 q41 0 63.5 -22.5t22.5 -63.5q0 -43 -24.5 -69.5t-67.5 -26.5q-41 0 -63.5 24.5t-22.5 65.5zM727 1614q0 41 24.5 66.5t67.5 25.5q41 0 63.5 -22.5t22.5 -63.5q0 -43 -24.5 -69.5t-67.5 -26.5q-41 0 -63.5 24.5t-22.5 65.5z" />
<glyph unicode="&#xb4;Y" horiz-adv-x="1081" d="M31 1313h176l26 -74l287 -590h17l313 586l31 78h174l-455 -842l-2 -88l6 -383h-166l13 383l-2 88zM356 1557q211 104 393 211l19 -4l41 -97l-4 -16q-182 -84 -400 -176l-20 8z" />
<glyph unicode="&#xa8;i" horiz-adv-x="487" d="M27 1241q0 41 24.5 66.5t67.5 25.5q41 0 63.5 -22.5t22.5 -63.5q0 -43 -24.5 -69.5t-67.5 -26.5q-41 0 -63.5 24.5t-22.5 65.5zM162 0l10 397l-8 531l162 14l-13 -530l11 -412h-162zM289 1241q0 41 24.5 66.5t67.5 25.5q41 0 63.5 -22.5t22.5 -63.5q0 -43 -24.5 -69.5 t-67.5 -26.5q-41 0 -63.5 24.5t-22.5 65.5z" />
<glyph unicode="&#xa8;o" horiz-adv-x="1005" d="M86 457q0 238 111.5 367.5t314.5 129.5q193 0 298 -123.5t105 -349.5q0 -238 -111.5 -367.5t-314.5 -129.5q-193 0 -298 123.5t-105 349.5zM240 494q0 -393 260 -394q264 0 264 344q0 195 -66.5 295.5t-193.5 100.5q-129 0 -196.5 -88t-67.5 -258zM256 1241 q0 41 24.5 66.5t67.5 25.5q41 0 63.5 -22.5t22.5 -63.5q0 -43 -24.5 -69.5t-67.5 -26.5q-41 0 -63.5 24.5t-22.5 65.5zM578 1241q0 41 24.5 66.5t67.5 25.5q41 0 63.5 -22.5t22.5 -63.5q0 -43 -24.5 -69.5t-67.5 -26.5q-41 0 -63.5 24.5t-22.5 65.5z" />
<glyph unicode="&#xb4;y" horiz-adv-x="872" d="M-45 -289l4 21q156 29 248 90t158 178l-347 934l158 10l31 -121l223 -641h14l228 625l30 131h150l-334 -903q-66 -182 -174 -280.5t-297 -145.5h-16q-49 49 -76 102zM291 1130q201 164 335 297l19 -2l61 -86l-4 -16q-203 -158 -348 -260l-18 2z" />
<glyph unicode="&#xfb01;" horiz-adv-x="1132" d="M74 840l10 96h137v125q0 197 93.5 289t293.5 92q119 0 264 -41l-20 -135l-21 -6q-133 63 -241 63q-111 0 -163 -56.5t-52 -174.5l-2 -156h504l96 12l12 -6l-12 -534l12 -408h-164l13 395l-9 432h-452l-6 -417l10 -410h-162l12 397l-4 430h-141z" />
<glyph unicode="&#xfb02;" horiz-adv-x="1165" d="M74 840l10 96h137l-2 147q-2 182 100.5 277.5t290.5 95.5q121 0 258 -31l127 13l-12 -1026l10 -412h-162l13 399l-8 893q-123 45 -236 45q-225 0 -227 -229l-2 -172h247l7 -12l-11 -97h-243l-4 -421l10 -406h-162l10 397l-4 430h-139z" />
<glyph horiz-adv-x="0" />
<glyph unicode="&#xd;" horiz-adv-x="681" />
<glyph unicode=" "  horiz-adv-x="337" />
<glyph unicode="&#x09;" horiz-adv-x="337" />
<glyph unicode="&#xa0;" horiz-adv-x="337" />
<glyph unicode="!" horiz-adv-x="524" d="M147 84q0 43 27 69.5t72 26.5q41 0 64.5 -24.5t23.5 -67.5q0 -45 -25.5 -71.5t-68.5 -26.5q-92 0 -93 94zM201 455v870l16 21l125 6l18 -21l-45 -885l-96 -10z" />
<glyph unicode="&#x22;" horiz-adv-x="573" d="M106 922l11 376l125 11l12 -15l-49 -374l-84 -13zM342 922l8 376l125 11l12 -15l-49 -374l-84 -13z" />
<glyph unicode="#" horiz-adv-x="1056" d="M41 420l8 90h223l54 238h-201l-12 12l8 88h227l74 328h94l10 -17l-69 -311h223l74 328h94l12 -17l-69 -311h213l12 -12l-10 -88h-238l-53 -238h217l10 -12l-8 -88h-242l-78 -344h-94l-10 14l74 330h-226l-75 -344h-97l-10 14l74 330h-197zM381 510h225l53 238h-225z" />
<glyph unicode="$" horiz-adv-x="888" d="M98 57l17 144l18 6q92 -90 234 -109l30 365q-86 37 -141 69.5t-93 85t-38 125.5q0 113 86 192t231 89l23 291h80l18 -17l-22 -274q102 -10 196 -47l-24 -131l-23 -6q-76 57 -158 73l-28 -352q125 -53 194.5 -113.5t69.5 -162.5q0 -111 -84 -194t-227 -97l-21 -258h-80 l-16 14l18 242q-143 6 -260 65zM258 760q0 -51 39 -88t113 -70l24 316q-80 -8 -128 -55.5t-48 -102.5zM465 98q76 15 123 61t47 103q0 53 -37 89t-106 69z" />
<glyph unicode="%" horiz-adv-x="1687" d="M82 950q0 180 80 275.5t231 95.5q139 0 214 -90t75 -260q0 -182 -79 -277.5t-230 -95.5q-139 0 -215 91t-76 261zM197 961q0 -250 186 -250t186 241q0 250 -188 250q-184 1 -184 -241zM283 -121l964 1510l72 -41l12 -29l-966 -1505l-72 41zM1004 344q0 180 79.5 275.5 t231.5 95.5q139 0 214 -90t75 -260q0 -182 -79 -277.5t-231 -95.5q-139 0 -214.5 91t-75.5 261zM1118 354q0 -250 187 -250q186 0 186 242q0 250 -188 250q-185 0 -185 -242z" />
<glyph unicode="&#x26;" horiz-adv-x="1421" d="M123 346q0 225 235 346v10q-76 72 -109.5 144t-33.5 155q0 152 101.5 238t289.5 86q168 0 322 -74l-39 -121h-23q-125 76 -264 76q-121 0 -183.5 -56t-62.5 -159q0 -66 30 -119t103 -114l482 -430q31 74 30 168q0 123 -57 237h-143l-10 12l12 107h586l12 -14l-15 -105 h-315l-4 -12q45 -121 45 -242q0 -131 -49 -233l270 -240v-12q-41 -45 -92 -72l-10 2l-240 215q-141 -154 -405 -153q-207 0 -335 97t-128 263zM262 371q0 -125 93.5 -196t246.5 -71q193 0 299 113l-467 418q-172 -96 -172 -264z" />
<glyph unicode="'" horiz-adv-x="339" d="M106 922l11 376l125 11l12 -15l-49 -374l-84 -13z" />
<glyph unicode="(" horiz-adv-x="589" d="M168 524q2 317 80 509t258 323h14l60 -53v-17q-150 -119 -213.5 -294t-65.5 -466q2 -285 65.5 -456.5t213.5 -288.5v-17l-60 -53h-14q-180 131 -258 318.5t-80 494.5z" />
<glyph unicode=")" horiz-adv-x="589" d="M10 -221q150 119 213.5 294t65.5 466q-2 285 -65.5 456.5t-213.5 288.5v17l60 53h14q180 -131 258 -318.5t80 -494.5q-2 -317 -80 -509t-258 -323h-14l-60 53v17z" />
<glyph unicode="*" horiz-adv-x="765" d="M74 1212q0 80 16 125l14 4l201 -122l-10 -68l-14 -8zM123 918v12l170 172l61 -33l-2 -18l-116 -191q-39 12 -113 58zM332 1483q57 18 123 18l6 -12l-45 -246l-70 -8l-10 14zM393 1059l49 45l21 -4l125 -185q-27 -47 -84 -90l-17 2zM440 1204l9 19l204 73q42 -65 56 -110 l-11 -10l-227 -33z" />
<glyph unicode="+" d="M63 498l11 102h360v363l103 10l12 -15v-358h358l13 -12l-11 -103h-360v-362l-103 -8l-12 12v358h-358z" />
<glyph unicode="," horiz-adv-x="468" d="M98 -168q113 88 113 180q0 55 -64 97v16q57 39 113 53q86 -53 86 -137q0 -133 -192 -274l-56 51v14z" />
<glyph unicode="-" horiz-adv-x="628" d="M59 442v103l496 69l14 -14v-102l-493 -72z" />
<glyph unicode="." horiz-adv-x="468" d="M141 84q0 43 26 69.5t71 26.5q41 0 65.5 -24.5t24.5 -67.5q0 -45 -26 -71.5t-71 -26.5q-90 0 -90 94z" />
<glyph unicode="/" horiz-adv-x="587" d="M45 -215l420 1604h113l12 -19l-420 -1601h-113z" />
<glyph unicode="0" horiz-adv-x="1081" d="M96 496q0 258 119 397t338 139q207 0 320.5 -134t113.5 -382q0 -254 -118.5 -392t-336.5 -138q-209 0 -322.5 133t-113.5 377zM225 508q0 -379 316 -379q156 0 236.5 93t80.5 276q0 190 -81 287.5t-238 97.5q-314 0 -314 -375z" />
<glyph unicode="1" horiz-adv-x="704" d="M23 776v129l413 123l25 -16l-10 -588l8 -424h-164l10 403l-2 439l-264 -74z" />
<glyph unicode="2" horiz-adv-x="931" d="M96 4v102l285 310q111 123 162 203.5t51 142.5q0 55 -41 91t-115 36t-146.5 -37t-131.5 -102h-21l-26 124q170 154 358 154q123 0 202 -62.5t79 -164.5q0 -82 -57.5 -183.5t-182.5 -246.5l-207 -236l4 -8h379l172 12l12 -10l-22 -137l-209 8h-459l-76 -4z" />
<glyph unicode="3" horiz-adv-x="843" d="M63 903q154 127 328 127q139 0 225 -72.5t86 -187.5q0 -88 -52 -170t-152 -133v-8q250 -59 250 -273q0 -113 -58.5 -200.5t-165 -136t-243.5 -48.5q-94 0 -201 19l-10 139l12 10q96 -41 209 -41q135 0 219 64.5t84 173.5q0 96 -68.5 151.5t-195.5 59.5h-121l-10 12l4 113 l90 2q55 0 112.5 30.5t95.5 84t38 116.5q0 74 -49.5 117t-129.5 43q-117 0 -254 -121h-18z" />
<glyph unicode="4" horiz-adv-x="985" d="M55 170v104l514 746h150l-4 -735h192l13 -17l-11 -114l-188 4h-4l6 -334l-10 -12l-123 -11l-10 13l4 344h-383l-135 -4zM199 285h387v538h-15z" />
<glyph unicode="5" horiz-adv-x="856" d="M63 -37l15 14q115 -49 223 -49q139 0 221 73t82 189q0 92 -62.5 147.5t-203.5 82.5l-174 33l-14 14l10 534l26 23l109 -4h276l189 8l8 -12l-16 -129l-13 -13l-149 13h-303l-8 -320l129 -26q190 -41 270 -119t80 -205q0 -123 -62.5 -217t-174 -147.5t-253.5 -53.5 q-86 0 -192 21z" />
<glyph unicode="6" horiz-adv-x="962" d="M94 432q0 260 159 465t447 320h11l127 -74v-17q-246 -86 -384.5 -204.5t-185.5 -282.5l13 -14q123 90 266 90q153 0 240 -94.5t87 -251.5q0 -172 -107.5 -278.5t-291.5 -106.5q-188 0 -284.5 116.5t-96.5 331.5zM242 432q0 -336 245 -336q115 0 178.5 64.5t63.5 185.5 q0 119 -59.5 183.5t-167.5 64.5q-135 0 -258 -107z" />
<glyph unicode="7" horiz-adv-x="854" d="M45 887l10 139l185 -6h469l86 4l2 -121l-398 -868l-92 -244l-131 37l-10 27l477 1030h-432l-156 -17z" />
<glyph unicode="8" horiz-adv-x="970" d="M98 293q0 115 65.5 187.5t174.5 125.5v10q-193 100 -193 283q0 145 98.5 229t258.5 84q149 0 234 -76.5t85 -209.5q0 -104 -53 -172t-145 -121v-10q111 -53 173 -118t62 -181q0 -154 -108.5 -246t-288.5 -92q-168 0 -265.5 85t-97.5 222zM238 309q0 -92 64.5 -149.5 t172.5 -57.5q113 0 179.5 58.5t66.5 152.5q0 66 -35 110t-83 69.5t-138 62.5q-105 -37 -166 -92t-61 -154zM283 903q0 -88 54 -136t157 -89q92 39 144 91t52 142q0 86 -52 134.5t-144 48.5q-97 0 -154 -51.5t-57 -139.5z" />
<glyph unicode="9" horiz-adv-x="962" d="M89 653q0 172 107.5 278.5t291.5 106.5q188 0 284.5 -116.5t96.5 -331.5q0 -260 -159 -465t-447 -320h-11l-127 74v17q246 86 384.5 204.5t185.5 282.5l-13 14q-123 -90 -266 -90q-153 0 -240 94.5t-87 251.5zM234 676q0 -119 59.5 -183.5t167.5 -64.5q135 0 258 107 l2 55q0 336 -245 336q-115 0 -178.5 -64.5t-63.5 -185.5z" />
<glyph unicode=":" horiz-adv-x="468" d="M133 84q0 43 26 69.5t71 26.5q41 0 65.5 -24.5t24.5 -67.5q0 -45 -26 -71.5t-71 -26.5q-90 0 -90 94zM133 635q0 43 26 69.5t71 26.5q41 0 65.5 -24.5t24.5 -67.5q0 -45 -26 -71.5t-71 -26.5q-90 0 -90 94z" />
<glyph unicode=";" horiz-adv-x="468" d="M90 -168q113 88 113 180q0 55 -64 97v16q57 39 113 53q86 -53 86 -137q0 -133 -192 -274l-56 51v14zM133 635q0 43 26 69.5t71 26.5q41 0 65.5 -24.5t24.5 -67.5q0 -45 -26 -71.5t-71 -26.5q-90 0 -90 94z" />
<glyph unicode="&#x3c;" d="M74 475l784 -311l19 10l24 94l-700 271v12l696 289l8 14l-37 94l-780 -321l-14 -19v-133z" />
<glyph unicode="=" d="M63 328l11 102h833l13 -12l-11 -103h-833zM63 666l11 102h833l13 -12l-11 -103h-833z" />
<glyph unicode="&#x3e;" d="M78 854l37 94l780 -321l14 -19v-133l-784 -311l-19 10l-24 94l700 271v12l-696 289z" />
<glyph unicode="?" horiz-adv-x="677" d="M123 1253l31 90l20 11q246 -17 379 -100t133 -222q0 -168 -172 -274l-170 -111l-4 -8l12 -197l-114 -14l-15 14l-16 236l10 20l197 117q125 74 125 193q0 205 -404 229zM205 84q0 43 25.5 69.5t70.5 26.5q41 0 65.5 -24.5t24.5 -67.5q0 -45 -25.5 -71.5t-70.5 -26.5 q-90 0 -90 94z" />
<glyph unicode="@" horiz-adv-x="1689" d="M74 383q0 254 107.5 452.5t303 310t451.5 111.5q207 0 363.5 -79.5t241.5 -226t85 -339.5q0 -288 -180 -448t-514 -172l59 424h-20q-158 -270 -330 -432h-31q-156 92 -155 325q0 147 55 286.5t165.5 237t266.5 119.5h10l131 -47l95 47l20 -8l-102 -719l-4 -112 q201 25 311 153.5t110 339.5q0 162 -70.5 285t-201.5 190.5t-307 67.5q-221 0 -390 -94t-263.5 -263t-94.5 -386q0 -221 97.5 -382t274.5 -246t415 -85l4 -17l-49 -82q-256 2 -448.5 98.5t-299 273.5t-106.5 417zM592 348q0 -104 19.5 -149t43.5 -45q25 0 86.5 67.5 t140.5 195.5t152 302l2 12l4 51l-129 45q-98 0 -169.5 -64.5t-110.5 -173t-39 -241.5z" />
<glyph unicode="A" horiz-adv-x="1183" d="M29 0l481 1313h190l439 -1313h-168l-31 131l-74 225l-295 6l-266 -6l-80 -217l-32 -139h-164zM356 496l230 -4l235 4l-213 647h-14z" />
<glyph unicode="B" horiz-adv-x="1099" d="M190 0l11 395l-11 918l365 2q184 0 283.5 -82t99.5 -238q0 -111 -51 -190.5t-146 -120.5q279 -55 279 -317q0 -375 -539 -375q-180 0 -288 8h-3zM348 410l6 -275q80 -6 152 -6q168 0 258 63.5t90 182.5q0 201 -252 229l-252 -2zM352 739l226 -6q192 45 192 242 q0 108 -58.5 156.5t-189.5 48.5h-166z" />
<glyph unicode="C" horiz-adv-x="1064" d="M78 645q0 326 151.5 502t429.5 176q207 0 359 -98l-33 -150l-18 -4q-137 115 -316 115q-195 0 -299 -134t-104 -393q0 -260 104.5 -397t294.5 -137q188 0 342 125l21 -10l-15 -156q-178 -98 -362 -98q-264 0 -409.5 171t-145.5 488z" />
<glyph unicode="D" horiz-adv-x="1323" d="M190 0l11 395l-11 918h3l473 8q280 0 429.5 -160t149.5 -459q0 -346 -161.5 -530t-465.5 -184q-201 0 -425 12h-3zM348 410l6 -273q143 -12 291 -12q209 0 320.5 136t111.5 407q0 516 -424 516q-129 0 -297 -8z" />
<glyph unicode="E" horiz-adv-x="987" d="M190 0l11 395l-11 918h740l8 -17l-12 -127l-310 7l-260 -5l-4 -430l246 -4l217 6l12 -14l-14 -127l-229 4l-234 -2l-2 -194l6 -273l260 -2l316 8l10 -16l-12 -127h-738z" />
<glyph unicode="F" horiz-adv-x="888" d="M190 0l11 395l-11 918h699l12 -17l-14 -131l-301 11l-230 -5l-4 -456l221 -4l213 6l13 -17l-15 -125l-227 7l-207 -2l-2 -170l8 -410h-166z" />
<glyph unicode="G" horiz-adv-x="1228" d="M78 631q0 338 166 515t473 177q207 0 385 -92l-33 -156l-20 -4q-98 61 -181.5 88t-175.5 27q-444 0 -444 -549q0 -264 103.5 -388t320.5 -124q102 0 266 49l4 154l-2 186l154 12l-4 -176l8 -287q-247 -77 -429 -77h-5q-293 0 -439.5 165.5t-146.5 479.5z" />
<glyph unicode="H" horiz-adv-x="1398" d="M190 0l11 395l-11 918h168l-6 -578l344 -6l353 6l-9 578h168l-8 -903l6 -410h-166l13 395l-2 197l-369 6l-332 -6l-2 -182l8 -410h-166z" />
<glyph unicode="I" horiz-adv-x="548" d="M190 0l11 395l-11 918h168l-10 -903l8 -410h-166z" />
<glyph unicode="J" horiz-adv-x="634" d="M12 1192l11 121h421l-8 -879l4 -192q0 -156 -77.5 -257.5t-270.5 -193.5l-63 92v21q141 76 200.5 149.5t59.5 186.5v178l-8 762l-252 -2z" />
<glyph unicode="K" horiz-adv-x="1118" d="M188 0l11 395l-11 918h168l-10 -903l8 -410h-166zM377 686v12l438 500l80 115h186l-530 -617q280 -362 567 -661l-2 -21q-63 -18 -155 -32l-19 10q-332 377 -565 694z" />
<glyph unicode="L" horiz-adv-x="851" d="M184 0l11 395l-11 918h168l-10 -903l6 -273h486l12 -14l-15 -123h-647z" />
<glyph unicode="M" horiz-adv-x="1615" d="M123 0l137 1313h186l68 -201l285 -747h12l299 759l68 189h184l129 -1313h-148l-30 399l-70 654h-14l-365 -901h-135l-346 901h-16l-70 -641l-35 -412h-139z" />
<glyph unicode="N" horiz-adv-x="1398" d="M190 0l11 389l-6 924h172l675 -1051h15l-2 1043l155 12l-12 -932l4 -385h-172l-678 1051h-12l-2 -619l6 -432h-154z" />
<glyph unicode="O" horiz-adv-x="1300" d="M78 645q0 328 152.5 504t437.5 176q268 0 412.5 -166t144.5 -477q0 -334 -153.5 -516t-436.5 -182q-266 0 -411.5 172t-145.5 489zM246 666q0 -545 399 -545q410 0 410 532q0 272 -99.5 404.5t-302.5 132.5q-407 0 -407 -524z" />
<glyph unicode="P" horiz-adv-x="1064" d="M190 0l11 395l-11 918l402 2q192 0 296.5 -99.5t104.5 -285.5q0 -219 -130 -344t-359 -125h-156v-51l8 -410h-166zM350 598l215 -4q260 40 260 321q0 254 -270 265l-199 -6z" />
<glyph unicode="Q" horiz-adv-x="1308" d="M78 645q0 328 152.5 504t437.5 176q268 0 412.5 -167t144.5 -482q0 -264 -100.5 -434t-286.5 -230q295 -207 657 -274l6 -21q-37 -69 -76 -104l-14 -6q-412 106 -723 379l-49 -2q-270 0 -415.5 172t-145.5 489zM246 659q0 -538 403 -538q406 0 406 541q0 528 -404 528 q-205 0 -305 -131t-100 -400z" />
<glyph unicode="R" horiz-adv-x="1136" d="M190 0l11 395l-11 918l402 2q193 0 298 -97.5t105 -277.5q0 -135 -70.5 -242.5t-199.5 -167.5q135 -223 340 -491l-2 -21q-74 -29 -152 -36l-22 14q-168 252 -301 491h-240v-77l8 -410h-166zM350 627l246 -6q229 66 229 305q0 244 -270 254l-199 -6z" />
<glyph unicode="S" horiz-adv-x="966" d="M86 78l20 168l23 10q72 -70 159 -103.5t167 -33.5q78 0 138 30.5t92 82t32 108.5q0 86 -65.5 138t-198.5 114q-109 53 -174.5 95t-112.5 108.5t-47 162.5q0 100 54 184.5t151.5 132.5t222.5 48q141 0 293 -61l-27 -158l-29 -8q-123 94 -258 94q-76 0 -132 -31t-85.5 -80 t-29.5 -102q0 -55 33.5 -97t85 -73t139.5 -74q111 -51 178 -95t115.5 -111.5t48.5 -164.5q0 -102 -55.5 -188t-156 -137t-229.5 -51q-188 0 -352 92z" />
<glyph unicode="T" horiz-adv-x="1003" d="M45 1186l12 127h891l13 -17l-13 -127l-229 13h-133l-6 -772l6 -410h-166l12 395l-10 787h-133l-234 -13z" />
<glyph unicode="U" horiz-adv-x="1282" d="M156 479l2 178l-2 656h161l-6 -813v-9q0 -362 332 -362q336 0 336 342v8l-8 834h164l-2 -668l-3 -147v-14q0 -232 -127 -363q-131 -135 -372 -135q-231 0 -355 129q-120 125 -120 349v15z" />
<glyph unicode="V" horiz-adv-x="1155" d="M31 1313h168l30 -133l334 -1014h12l369 1005l33 142h164l-482 -1313h-190z" />
<glyph unicode="W" horiz-adv-x="1828" d="M43 1313h164l22 -127l320 -1004h14l283 799l-111 332h168l31 -142l323 -989h13l356 996l31 135h155l-471 -1313h-170l-256 762h-14l-270 -762h-170z" />
<glyph unicode="X" horiz-adv-x="1206" d="M47 0l445 664l-429 649h199l53 -105l283 -420l285 422l53 103h178l-416 -629l449 -684h-199l-57 106l-303 449l-314 -459l-53 -96h-174z" />
<glyph unicode="Y" horiz-adv-x="1081" d="M31 1313h176l26 -74l287 -590h17l313 586l31 78h174l-455 -842l-2 -88l6 -383h-166l13 383l-2 88z" />
<glyph unicode="Z" horiz-adv-x="1081" d="M63 -6v121l738 1063h-506l-197 -15l-10 13l12 139l795 -2l100 2v-123l-735 -1059h545l194 14l9 -12l-15 -139l-237 4h-576z" />
<glyph unicode="[" horiz-adv-x="589" d="M201 -244l8 774l-8 775l366 20l11 -12v-78l-244 -23v-1366l244 -22v-78l-11 -10z" />
<glyph unicode="\" horiz-adv-x="587" d="M10 1370l420 -1601h113l12 16l-420 1604h-113z" />
<glyph unicode="]" horiz-adv-x="589" d="M12 -176l244 23v1366l-244 22v78l11 10l366 -20l-8 -774l8 -775l-366 -20l-11 12v78z" />
<glyph unicode="^" horiz-adv-x="868" d="M41 266l324 731l16 11h135l311 -734l-12 -16l-94 -22l-270 649h-13l-286 -645l-17 -11z" />
<glyph unicode="_" horiz-adv-x="921" d="M-31 -274l11 94h960l12 -13l-10 -96h-960z" />
<glyph unicode="`" horiz-adv-x="796" d="M191 1339l4 -16q203 -158 348 -260l18 2l45 65q-201 164 -335 297l-19 -2z" />
<glyph unicode="a" horiz-adv-x="946" d="M86 242q0 174 190 219l332 78l2 133q0 80 -42 123t-119 43q-133 0 -289 -136l-17 9l-20 116q170 127 350 127q133 0 210 -65.5t77 -179.5q0 -35 -12 -252t-13 -254q0 -45 14.5 -62.5t49.5 -17.5q31 0 69 12l17 -14l-17 -92q-59 -35 -116 -41q-63 6 -101.5 45t-40.5 106 h-14q-111 -113 -219 -153q-137 0 -214 68.5t-77 187.5zM231 264q0 -68 38 -105.5t102 -37.5q113 0 229 145l6 168l-297 -72q-41 -12 -59.5 -33.5t-18.5 -64.5z" />
<glyph unicode="b" horiz-adv-x="1048" d="M170 -6l14 399l-12 1030l162 15l-6 -629h12q70 57 127 88t131 51q178 0 271.5 -117.5t93.5 -332.5q0 -246 -119 -380t-332 -134q-98 0 -201 45l-112 -52zM324 412l6 -244q98 -66 196 -66q131 0 207 92.5t76 272.5q0 166 -58.5 257t-166.5 91q-125 0 -258 -145z" />
<glyph unicode="c" horiz-adv-x="788" d="M86 463q0 227 111.5 359t304.5 132q137 0 252 -55l-29 -141l-18 -6q-105 69 -208 69h-3q-121 0 -188.5 -92t-67.5 -258t70.5 -261t195.5 -95q117 0 229 69l19 -10l-19 -137q-125 -53 -250 -53q-186 0 -292.5 128t-106.5 351z" />
<glyph unicode="d" horiz-adv-x="1056" d="M84 467q0 231 120 359t335 128q92 0 180 -20l-4 489l162 15l-13 -1026l4 -211q2 -43 14.5 -60.5t45.5 -17.5t69 12l17 -14l-15 -92q-59 -35 -116 -41q-127 12 -144 143h-14q-115 -100 -223 -141q-203 0 -310.5 124t-107.5 353zM236 494q0 -174 69.5 -270.5t188.5 -96.5 q117 0 225 125l4 147l-4 389q-113 51 -201 52q-131 0 -206.5 -89t-75.5 -257z" />
<glyph unicode="e" horiz-adv-x="925" d="M86 463q0 227 119 358t321 131q154 0 239 -93t85 -259l-4 -94l-35 -27l-571 -2v-6q0 -170 70.5 -263t209.5 -93q141 0 275 92l18 -10l-16 -138q-145 -75 -281 -75h-4q-201 0 -313.5 128t-112.5 351zM250 586l450 12l5 25q0 106 -52.5 160.5t-140.5 54.5 q-104 0 -173 -65.5t-89 -186.5z" />
<glyph unicode="f" horiz-adv-x="620" d="M74 840l10 96h139l-2 164v7q0 161 86 247q88 88 250 88q74 -1 160 -19l-12 -127l-13 -10q-74 37 -149 37q-166 0 -168 -199l-2 -188h245l7 -12l-11 -97h-243l-4 -415l10 -412h-162l12 399l-4 428h-141z" />
<glyph unicode="g" horiz-adv-x="997" d="M113 -127q49 98 180 178v10q-154 47 -154 164q43 72 125 125v8q-133 82 -133 263q0 154 99.5 240.5t265.5 86.5q106 0 184 -37q141 27 297 70l16 -12v-111q-63 -18 -188 -43l-4 -8q45 -72 45 -174q0 -150 -99.5 -238t-269.5 -88q-68 0 -127 17q-59 -45 -59 -80 q0 -43 53 -60.5t174 -36.5q119 -16 194.5 -36.5t131 -66.5t55.5 -128q0 -86 -58.5 -157.5t-159.5 -112.5t-222 -41q-164 0 -255 74.5t-91 193.5zM256 -143q0 -59 58.5 -98.5t162.5 -39.5q119 0 199 48.5t80 117.5q0 47 -37 75t-91.5 40t-150.5 27l-63 10q-158 -96 -158 -180 zM276 627q0 -98 54.5 -153.5t154.5 -55.5q103 0 159 57t56 160q0 98 -53 151.5t-153 53.5q-102 0 -160 -55.5t-58 -157.5z" />
<glyph unicode="h" horiz-adv-x="1064" d="M172 0l10 399l-8 1024l162 15l-8 -633h12q127 113 260 145q154 0 234 -72q79 -70 79 -198v-6l-4 -266l6 -408h-163l12 637v7q0 77 -40 123q-42 48 -120 48q-137 0 -276 -145l-4 -258l10 -412h-162z" />
<glyph unicode="i" horiz-adv-x="487" d="M154 1262q0 43 25.5 69.5t70.5 26.5q41 0 65.5 -24.5t24.5 -65.5q0 -47 -25.5 -74t-70.5 -27q-90 0 -90 95zM162 0l10 397l-8 531l162 14l-13 -530l11 -412h-162z" />
<glyph unicode="j" horiz-adv-x="542" d="M10 842l10 94h193l152 6l6 -4l-13 -526l9 -373q0 -160 -63.5 -257t-219.5 -179l-61 73v19q109 66 150.5 138.5t41.5 197.5l4 366l-8 430h-188zM164 1262q0 43 25.5 69.5t70.5 26.5q41 0 65.5 -24.5t24.5 -65.5q0 -47 -25.5 -74t-70.5 -27q-90 0 -90 95z" />
<glyph unicode="k" horiz-adv-x="933" d="M172 0l10 399l-8 1024l162 15l-12 -1026l10 -412h-162zM362 494v14l293 346l56 84h182l-369 -430q142 -190 394 -479v-19q-33 -10 -146 -28l-20 8q-217 256 -390 504z" />
<glyph unicode="l" horiz-adv-x="505" d="M172 0l12 399l-10 1024l162 15l-12 -1026l10 -412h-162z" />
<glyph unicode="m" horiz-adv-x="1630" d="M162 0l10 397l-8 531l155 14l-2 -137h15q125 113 258 145q233 0 293 -155h12q129 117 279 155q154 0 234 -72q78 -70 77 -198v-6l-2 -266l6 -408h-164l12 637v8q0 79 -40 123q-42 47 -121 47q-131 0 -273 -141l-4 -266l8 -408h-164l11 637v8q0 78 -39 123q-41 47 -121 47 q-133 0 -277 -147l-2 -256l9 -412h-162z" />
<glyph unicode="n" horiz-adv-x="1054" d="M162 0l10 397l-8 531l155 14l-2 -137h13q127 113 260 145q156 0 236 -72q78 -70 77 -198v-6l-4 -266l8 -408h-164l11 637v8q0 78 -39 123q-41 47 -121 47q-135 0 -277 -145l-2 -258l9 -412h-162z" />
<glyph unicode="o" horiz-adv-x="1005" d="M86 457q0 238 111.5 367.5t316.5 129.5q191 0 296 -123.5t105 -349.5q0 -238 -110.5 -367.5t-315.5 -129.5q-193 0 -298 123.5t-105 349.5zM240 494q0 -393 260 -394q264 0 264 344q0 195 -66.5 295.5t-193.5 100.5q-129 0 -196.5 -88t-67.5 -258z" />
<glyph unicode="p" horiz-adv-x="1036" d="M162 -379l12 776l-12 531l157 14l-2 -133h13q72 59 129 90t129 49q178 0 271 -117.5t93 -332.5q0 -246 -119.5 -380t-336.5 -134q-90 0 -179 18l5 -381h-160zM313 412l2 -256q100 -53 201 -54q131 0 207 92.5t76 272.5q0 166 -58.5 257t-167.5 91q-125 0 -258 -145z" />
<glyph unicode="q" horiz-adv-x="1036" d="M84 461q0 238 119 365.5t332 127.5q115 0 245 -36l80 32l17 -10l-13 -532l10 -787h-159l6 451v39h-16q-102 -82 -211 -121q-199 0 -304.5 124t-105.5 347zM236 487q0 -170 66.5 -265t182.5 -95q119 0 236 125l2 139l-4 391q-111 55 -203 56q-131 0 -205.5 -88t-74.5 -263 z" />
<glyph unicode="r" horiz-adv-x="661" d="M162 0l12 397l-10 531l155 14l-2 -192h13q109 190 262 190q24 0 53 -4v-158l-18 -6q-35 10 -74 10q-133 0 -238 -227l-2 -143l11 -412h-162z" />
<glyph unicode="s" horiz-adv-x="757" d="M66 51l20 139l18 13q57 -49 124 -76t126 -27q76 0 123 42t47 100q0 55 -44 89t-136 77q-80 37 -129 66.5t-84 80.5t-35 127q0 119 87 194.5t237 75.5q116 0 225 -45l-22 -133l-25 -6q-102 68 -197 68q-70 0 -112.5 -39t-42.5 -95q0 -55 44 -88.5t136 -76.5 q80 -37 128 -67t83 -79t35 -121q0 -76 -39 -141.5t-115 -105t-180 -39.5q-143 0 -272 67z" />
<glyph unicode="t" horiz-adv-x="653" d="M51 840l10 96h125v151l142 62l16 -14l-4 -199h278l9 -12l-11 -97h-276l-10 -555v-10q0 -74 28 -104q30 -32 101 -33q67 0 147 41l19 -12l-17 -107q-111 -51 -205 -59q-117 23 -168 86t-51 184l6 145l-2 424h-129z" />
<glyph unicode="u" horiz-adv-x="1046" d="M150 928l163 14l-12 -639v-8q0 -78 39 -123q41 -47 119 -47q125 0 254 125v678l155 14l-12 -741q0 -43 14.5 -60.5t47.5 -17.5t71 12l15 -14l-15 -92q-59 -35 -117 -41q-125 12 -141 143h-16q-123 -111 -254 -143q-153 0 -231 72q-77 70 -76 197v7l2 260z" />
<glyph unicode="v" horiz-adv-x="870" d="M43 934l152 10l26 -125l203 -657h10l240 649l33 127h145l-344 -938h-174z" />
<glyph unicode="w" horiz-adv-x="1384" d="M43 934l150 10l22 -121l172 -647h10l199 639l33 123h159l23 -115l172 -647h10l201 639l29 123h143l-309 -938h-156l-194 727h-15l-227 -727h-160z" />
<glyph unicode="x" horiz-adv-x="890" d="M47 0l301 477l-299 455l174 12l39 -88l195 -285l178 283l47 84h152l-293 -459l313 -471l-172 -16l-45 96l-201 297l-196 -305l-41 -80h-152z" />
<glyph unicode="y" horiz-adv-x="872" d="M-45 -289l4 21q156 29 248 90t158 178l-347 934l158 10l31 -121l223 -641h14l228 625l30 131h150l-334 -903q-66 -182 -174 -280.5t-297 -145.5h-16q-49 49 -76 102z" />
<glyph unicode="z" horiz-adv-x="843" d="M68 -4v98l526 731h-354l-146 -16l-12 14l14 119l168 -4h420l78 2l4 -98l-524 -727h370l154 14l10 -14l-14 -119l-189 4h-409z" />
<glyph unicode="{" horiz-adv-x="589" d="M92 492v83q166 33 166 179q0 51 -18 153q-23 150 -23 203q0 231 236 231q45 0 106 -14l8 -14l-16 -88q-47 10 -76 10q-127 0 -127 -150q0 -66 23 -174q20 -119 20 -161q0 -152 -137 -211v-9q137 -59 137 -208q0 -47 -20 -162q-23 -113 -23 -174q0 -152 127 -152 q29 0 76 10l16 -88l-8 -14q-51 -12 -106 -12q-236 0 -236 229q0 51 23 201q18 102 18 155q0 150 -166 177z" />
<glyph unicode="|" horiz-adv-x="643" d="M256 -520v1100l2 1044l117 8l10 -10l-2 -1032v-1120l-113 -7z" />
<glyph unicode="}" horiz-adv-x="589" d="M23 -244l16 88q47 -10 76 -10q127 0 127 150q0 66 -23 174q-20 119 -20 161q0 152 137 211v9q-137 59 -137 208q0 47 20 162q23 113 23 174q0 152 -127 152q-29 0 -76 -10l-16 88l8 14q51 12 106 12q236 0 236 -229q0 -51 -23 -201q-18 -102 -18 -155q0 -150 166 -177 v-83q-166 -33 -166 -179q0 -51 18 -153q23 -150 23 -203q0 -231 -236 -231q-45 0 -106 14z" />
<glyph unicode="~" d="M102 477v19l150 149l20 8q51 -6 201 -51q176 -49 209 -49q20 0 43 17.5t52.5 45t43.5 41.5h17l45 -55v-18l-150 -152l-20 -4q-45 6 -219 53q-160 45 -189 45q-20 0 -40.5 -15t-67.5 -58l-31 -31h-19z" />
<glyph unicode="&#xa1;" horiz-adv-x="524" d="M166 -383l45 885l96 10l18 -19v-870l-16 -21l-125 -6zM192 860q0 45 25.5 71.5t68.5 26.5q92 0 93 -94q0 -43 -27 -69.5t-72 -26.5q-41 0 -64.5 24.5t-23.5 67.5z" />
<glyph unicode="&#xa2;" horiz-adv-x="784" d="M80 545q0 217 98 348t268 143l23 299h80l16 -16l-22 -285q111 -14 198 -69l-24 -105l-19 -2q-74 51 -161 66l-60 -740h12q123 0 242 72l17 -8l-15 -98q-121 -74 -264 -76l-27 -318h-77l-17 15l25 313q-137 31 -215 152.5t-78 308.5zM207 557q0 -135 46 -226t130 -126 l55 719q-109 -16 -170 -113.5t-61 -253.5z" />
<glyph unicode="&#xa3;" horiz-adv-x="851" d="M49 12l10 84q145 31 146 219v281h-146l-8 12l10 78h144v197q0 160 86 245.5t248 85.5q94 0 221 -34l-10 -125l-11 -11q-111 66 -211 66q-188 0 -188 -207v-217h260l8 -10l-8 -80h-262v-266q0 -139 -82 -207v-6h336l186 14l8 -14l-10 -121l-205 4h-512z" />
<glyph unicode="&#xa4;" horiz-adv-x="890" d="M57 1022l2 16l68 74h18l131 -139q72 55 162 55q86 0 158 -51l129 137l18 2l72 -72v-18l-137 -129q55 -72 55 -164q0 -90 -53 -160l139 -127l2 -18l-71 -74l-17 2l-129 138q-74 -57 -166 -58q-86 0 -157 56l-129 -140h-17l-76 72l2 16l138 129q-55 72 -56 164q0 86 54 160 zM240 733q0 -86 57 -142t141 -56q86 0 143.5 56t57.5 142q0 84 -57.5 141.5t-143.5 57.5q-82 0 -140 -57.5t-58 -141.5z" />
<glyph unicode="&#xa5;" horiz-adv-x="985" d="M43 258l6 72h381v22l-90 168h-289l-8 10l6 72h246l-223 416h145l23 -57l249 -451h11l270 446l29 62h143l-244 -416h244l8 -8l-6 -74h-295l-94 -160v-30h387l8 -11l-6 -71h-391l4 -248h-133l6 248h-379z" />
<glyph unicode="&#xa6;" horiz-adv-x="643" d="M256 313l113 15l14 -19v-839l-113 -7l-14 17v833zM256 762v862l119 8l10 -10l-2 -858l-113 -14z" />
<glyph unicode="&#xa7;" horiz-adv-x="860" d="M72 -141l20 139l19 12q121 -111 249 -110q84 0 135.5 45t51.5 102q0 55 -46 98t-147 111q-84 55 -136 96t-89 98.5t-37 129.5q0 84 51.5 156.5t139.5 117.5q-96 90 -97 193q0 74 43 137t119 101t170 38q119 0 225 -43l-22 -139l-23 -6q-111 78 -204 77q-74 0 -122 -44 t-48 -99q0 -53 47 -97t143 -106q86 -55 138.5 -97t89 -99.5t36.5 -128.5q0 -84 -51 -156t-139 -115q98 -92 98 -198q0 -74 -44 -138.5t-122 -102.5t-176 -38q-147 0 -272 66zM229 608q0 -59 49.5 -107t151.5 -114l66 -43q145 64 145 164q0 63 -50 112.5t-157 120.5 q-51 35 -57 39q-147 -70 -148 -172z" />
<glyph unicode="&#xa8;" horiz-adv-x="796" d="M149 1192q0 42 25 67t68 25q39 0 62.5 -23.5t23.5 -64.5q0 -43 -25 -68.5t-68 -25.5q-86 0 -86 90zM457 1192q0 42 25 67t68 25q39 0 62.5 -23.5t23.5 -64.5q0 -43 -25 -68.5t-68 -25.5q-86 0 -86 90z" />
<glyph unicode="&#xa9;" horiz-adv-x="1402" d="M94 600q0 186 76 327.5t213 219.5t317 78q181 0 318 -78t212 -219.5t75 -327.5t-75 -327.5t-212 -219.5t-318 -78q-180 0 -317 78t-213 219.5t-76 327.5zM164 600q0 -166 66.5 -292t188.5 -194.5t281 -68.5q158 0 280 69.5t189.5 194.5t67.5 291t-67.5 291t-189.5 194.5 t-280 69.5q-159 0 -281 -68.5t-188.5 -194.5t-66.5 -292zM399 602q0 168 86 259t246 91q99 0 193 -47l-25 -92l-10 -4q-70 47 -162 47q-209 0 -209 -244q0 -258 209 -258q90 0 174 47l12 -4l-10 -92q-88 -47 -184 -47q-158 0 -239 88t-81 256z" />
<glyph unicode="&#xaa;" horiz-adv-x="655" d="M70 862q0 127 133 152l207 39l2 75q0 96 -99 97q-78 0 -186 -76l-10 4l-19 96q121 80 240 80q100 0 153.5 -45t53.5 -129l-6 -166q-6 -98 -7 -143q0 -55 35 -55q25 0 39 12l12 -8l-16 -82q-39 -31 -86 -31q-45 0 -67.5 22.5t-32.5 75.5h-6q-72 -82 -154 -100 q-88 4 -137 52t-49 130zM201 874q0 -41 22.5 -65.5t61.5 -24.5q59 0 121 74l2 123l-144 -33q-63 -13 -63 -74z" />
<glyph unicode="&#xab;" horiz-adv-x="815" d="M41 442v33l297 356l80 -45l2 -20l-254 -305l254 -305l-2 -19l-80 -45zM381 442v33l297 356l80 -45l2 -20l-254 -305l254 -305l-2 -19l-80 -45z" />
<glyph unicode="&#xac;" d="M59 498l9 102h788l12 -14v-463l-102 -8l-12 12v358h-684z" />
<glyph unicode="&#xad;" horiz-adv-x="628" d="M59 442v103l496 69l14 -14v-102l-493 -72z" />
<glyph unicode="&#xae;" horiz-adv-x="899" d="M78 1067q0 168 102.5 269.5t270.5 101.5q167 0 268.5 -101.5t101.5 -269.5t-101.5 -270.5t-268.5 -102.5q-168 0 -270.5 102.5t-102.5 270.5zM133 1067q0 -143 88 -231t232 -88q143 0 230 88t87 231t-87 230t-230 87q-145 0 -232.5 -87t-87.5 -230zM315 883l2 118l-2 277 h150q133 0 133 -117q0 -80 -80 -121q37 -59 107 -143l-2 -8q-27 -8 -72 -12l-8 6q-49 72 -88 139h-70v-14l4 -125h-74zM387 1083l74 -4q61 20 61 76q0 63 -80 68l-53 -2z" />
<glyph unicode="&#xaf;" horiz-adv-x="796" d="M98 1204l11 94h579l12 -10l-10 -96h-579z" />
<glyph unicode="&#xb0;" horiz-adv-x="600" d="M41 1071q0 106 76 180t184 74q109 0 183.5 -73.5t74.5 -180.5q0 -106 -74.5 -181t-183.5 -75t-184.5 75t-75.5 181zM123 1071q0 -72 52 -123t124 -51q74 0 126 51t52 123t-52 123t-126 51q-72 0 -124 -51t-52 -123z" />
<glyph unicode="&#xb1;" d="M63 -174l11 102h833l13 -12l-11 -103h-833zM63 498l11 102h360v363l103 10l12 -15v-358h358l13 -12l-11 -103h-360v-362l-103 -8l-12 12v358h-358z" />
<glyph unicode="&#xb2;" horiz-adv-x="714" d="M80 666v86l201 234q84 102 118.5 155t34.5 96q0 39 -27.5 65t-76.5 26q-51 0 -104.5 -28t-96.5 -77h-18l-23 109q133 113 274 112q95 0 157.5 -48t62.5 -128q0 -59 -40 -128.5t-134 -186.5l-138 -174l4 -4h252l131 6l7 -13l-17 -112l-164 6h-340l-55 -2z" />
<glyph unicode="&#xb3;" horiz-adv-x="630" d="M61 1367q104 80 230 79q100 0 160.5 -48t60.5 -128q0 -55 -31.5 -106t-95.5 -80v-8q156 -41 156 -187q0 -106 -89.5 -170.5t-234.5 -64.5q-80 0 -139 14l-10 103l12 10q74 -18 139 -19q84 0 132 35t48 94q0 113 -143 117h-88l-8 10l2 97h61q51 0 97.5 37.5t46.5 91.5 q0 43 -29 66.5t-78 23.5q-70 0 -162 -64h-14z" />
<glyph unicode="&#xb4;" horiz-adv-x="796" d="M193 1130q201 164 335 297l19 -2l61 -86l-4 -16q-203 -158 -348 -260l-18 2z" />
<glyph unicode="&#xb5;" horiz-adv-x="1046" d="M150 -379l4 776l-4 531l151 14v-649q2 -78 45 -123t119 -45q119 0 250 125v678l153 14l-10 -731q-2 -102 57 -102q31 0 70 24l16 -12l-18 -92q-55 -39 -121 -39q-113 0 -139 133h-14q-125 -109 -267 -135q-82 0 -141 35v-402h-151z" />
<glyph unicode="&#xb6;" horiz-adv-x="993" d="M78 907q0 193 116.5 299.5t331.5 106.5h402l12 -17l-12 -112h-152l-6 -809l2 -111q0 -135 -74.5 -235.5t-251.5 -186.5l-47 74v21q115 72 167 146.5t52 170.5v94l-2 838h-120q-119 -10 -183.5 -85t-64.5 -200t70.5 -211t203.5 -127l-51 -92q-188 37 -290.5 147.5 t-102.5 288.5z" />
<glyph unicode="&#xb7;" horiz-adv-x="468" d="M141 500q0 43 26 69.5t71 26.5q41 0 65.5 -24.5t24.5 -67.5q0 -45 -26 -71.5t-71 -26.5q-90 0 -90 94z" />
<glyph unicode="&#xb8;" horiz-adv-x="796" d="M244 -332l14 82l10 2q57 -63 117 -63q29 0 46.5 14t17.5 41t-43 51l-99 60l51 184h95l-43 -143l69 -41q78 -45 78 -115q0 -59 -46 -97t-120 -38q-88 0 -147 63z" />
<glyph unicode="&#xb9;" horiz-adv-x="528" d="M29 1250v114l299 84l18 -18l-4 -492l4 -276h-145l4 258v367l-164 -43z" />
<glyph unicode="&#xba;" horiz-adv-x="694" d="M63 995q0 162 76 248t215 86q135 0 206 -82t71 -235q0 -160 -76 -247t-215 -87q-133 0 -205 82t-72 235zM203 1010q0 -229 145 -230q150 0 150 217q0 227 -148 228q-147 0 -147 -215z" />
<glyph unicode="&#xbb;" horiz-adv-x="800" d="M45 160l254 305l-254 305l2 18l80 46l297 -351v-32l-297 -357l-80 45zM385 160l254 305l-254 305l2 18l80 46l297 -351v-32l-297 -357l-80 45z" />
<glyph unicode="&#xbc;" horiz-adv-x="1437" d="M29 1126v115l299 84l18 -18l-4 -492l4 -276h-145l4 258v366l-164 -43zM100 -121l965 1510l72 -41l12 -29l-967 -1505l-71 41zM772 215v90l336 471h133l-2 -463h119l10 -12l-8 -100l-119 6l8 -195l-8 -12l-115 -6l-8 8l2 205h-233l-105 -6zM899 313h223v301h-10z" />
<glyph unicode="&#xbd;" horiz-adv-x="1466" d="M29 1126v115l299 84l18 -18l-4 -492l4 -276h-145l4 258v366l-164 -43zM100 -121l965 1510l72 -41l12 -29l-967 -1505l-71 41zM831 4v86l201 234q84 102 119 155t35 96q0 39 -28 65t-77 26q-51 0 -104 -28t-96 -77h-19l-22 109q133 113 274 112q94 0 156.5 -48t62.5 -128 q0 -59 -40 -128.5t-134 -186.5l-137 -174l4 -4h252l131 6l6 -13l-16 -112l-164 6h-340l-55 -2z" />
<glyph unicode="&#xbe;" horiz-adv-x="1513" d="M61 1243q104 80 230 80q100 0 160.5 -48t60.5 -128q0 -55 -31.5 -106.5t-95.5 -79.5v-9q156 -41 156 -186q0 -107 -89.5 -171.5t-234.5 -64.5q-80 0 -139 15l-10 102l12 10q74 -18 139 -18q84 0 132 35t48 94q0 113 -143 117h-88l-8 10l2 96h61q51 0 97.5 38t46.5 91 q0 43 -29 66.5t-78 23.5q-70 0 -162 -63h-14zM176 -121l965 1510l71 -41l13 -29l-967 -1505l-72 41zM848 215v90l336 471h133l-2 -463h119l10 -12l-8 -100l-119 6l8 -195l-8 -12l-115 -6l-8 8l2 205h-233l-105 -6zM975 313h223v301h-10z" />
<glyph unicode="&#xbf;" horiz-adv-x="677" d="M0 -84q0 168 172 274l170 111l4 8l-12 197l114 14l15 -14l16 -236l-10 -20l-197 -117q-125 -74 -125 -193q0 -205 404 -229l12 -16l-31 -90l-20 -11q-246 17 -379 100t-133 222zM295 860q0 45 25.5 71.5t70.5 26.5q90 0 90 -94q0 -43 -25.5 -69.5t-70.5 -26.5 q-41 0 -65.5 24.5t-24.5 67.5z" />
<glyph unicode="&#xc0;" horiz-adv-x="1183" d="M29 0l483 1313h190l439 -1313h-170l-29 131l-74 225l-297 6l-266 -6l-80 -217l-32 -139h-164zM356 496l230 -4l235 4l-213 647h-14zM369 1669l41 96l18 4q182 -106 393 -210l-28 -74l-21 -8q-217 92 -399 176z" />
<glyph unicode="&#xc1;" horiz-adv-x="1183" d="M29 0l481 1313h190l439 -1313h-168l-31 131l-74 225l-295 6l-266 -6l-80 -217l-32 -139h-164zM356 496l230 -4l235 4l-213 647h-14zM422 1557q211 104 393 211l19 -4l41 -97l-4 -16q-182 -84 -400 -176l-20 8z" />
<glyph unicode="&#xc2;" horiz-adv-x="1183" d="M29 0l483 1313h190l439 -1313h-170l-29 131l-74 225l-297 6l-266 -6l-80 -217l-32 -139h-164zM332 1571q137 94 237 186h47q92 -82 240 -186l-33 -70h-18q-115 70 -211 135q-80 -55 -209 -135h-20zM356 496l230 -4l235 4l-213 647h-14z" />
<glyph unicode="&#xc3;" horiz-adv-x="1183" d="M29 0l481 1313h190l439 -1313h-168l-31 131l-74 225l-295 6l-266 -6l-80 -217l-32 -139h-164zM271 1557v14l125 141l20 7q49 -4 170 -41q127 -33 148 -33q27 0 82 59l34 35h17l49 -51v-17l-125 -141l-21 -6q-45 4 -172 41q-117 35 -145 35q-14 0 -30.5 -13.5t-51.5 -48.5 l-33 -35h-18zM356 496l230 -4l235 4l-213 647h-14z" />
<glyph unicode="&#xc4;" horiz-adv-x="1183" d="M29 0l483 1313h190l439 -1313h-170l-29 131l-74 225l-297 6l-266 -6l-80 -217l-32 -139h-164zM346 1614q0 41 24.5 66.5t67.5 25.5q41 0 63.5 -22.5t22.5 -63.5q0 -43 -24.5 -69.5t-67.5 -26.5q-41 0 -63.5 24.5t-22.5 65.5zM356 496l230 -4l235 4l-213 647h-14z M668 1614q0 41 24.5 66.5t67.5 25.5q41 0 63.5 -22.5t22.5 -63.5q0 -43 -24.5 -69.5t-67.5 -26.5q-41 0 -63.5 24.5t-22.5 65.5z" />
<glyph unicode="&#xc5;" horiz-adv-x="1183" d="M29 0l481 1313h190l439 -1313h-168l-31 131l-74 225l-295 6l-266 -6l-80 -217l-32 -139h-164zM356 496l230 -4l235 4l-213 647h-14zM420 1630q0 78 47 124t127 46t125 -46t45 -119q0 -80 -50 -126t-126 -46q-74 0 -121 44t-47 123zM498 1633q0 -45 25.5 -69t68.5 -24 q41 0 66.5 22.5t25.5 65.5q0 92 -94 93q-92 0 -92 -88z" />
<glyph unicode="&#xc6;" horiz-adv-x="1652" d="M-33 0l692 1313h764l13 -17l-17 -127l-332 9h-198l72 -486l440 92l14 -12l8 -119l-444 -88l63 -432h232l336 10l12 -16l-14 -127h-713l-10 131l-60 399l-487 -110l-150 -281l-51 -139h-170zM420 575l385 84l-72 484h-12z" />
<glyph unicode="&#xc7;" horiz-adv-x="1064" d="M78 645q0 326 151.5 502t429.5 176q207 0 359 -98l-33 -150l-18 -4q-137 115 -316 115q-195 0 -299 -134t-104 -393q0 -260 104.5 -397t294.5 -137q188 0 342 125l21 -10l-15 -156q-156 -88 -319 -96l-27 -92l70 -41q78 -45 78 -115q0 -59 -46 -97t-120 -38 q-88 0 -148 63l15 82l10 2q57 -63 117 -63q29 0 46 14t17 41t-43 51l-98 60l37 133q-242 16 -374 186t-132 471z" />
<glyph unicode="&#xc8;" horiz-adv-x="987" d="M190 0l11 395l-11 918h740l10 -17l-14 -127l-310 7l-260 -5l-4 -430l246 -4l217 6l10 -14l-12 -127l-229 4l-234 -2l-2 -194l6 -273l262 -2l314 8l10 -16l-12 -127h-738zM336 1669l41 96l18 4q182 -106 393 -210l-28 -74l-21 -8q-217 92 -399 176z" />
<glyph unicode="&#xc9;" horiz-adv-x="987" d="M190 0l11 395l-11 918h740l8 -17l-12 -127l-310 7l-260 -5l-4 -430l246 -4l217 6l12 -14l-14 -127l-229 4l-234 -2l-2 -194l6 -273l260 -2l316 8l10 -16l-12 -127h-738zM391 1557q211 104 393 211l19 -4l41 -97l-4 -16q-182 -84 -400 -176l-20 8z" />
<glyph unicode="&#xca;" horiz-adv-x="987" d="M190 0l11 395l-11 918h740l10 -17l-14 -127l-310 7l-260 -5l-4 -430l246 -4l217 6l10 -14l-12 -127l-229 4l-234 -2l-2 -194l6 -273l262 -2l314 8l10 -16l-12 -127h-738zM299 1571q137 94 238 186h47q92 -82 239 -186l-32 -70h-19q-115 70 -211 135q-80 -55 -209 -135 h-20z" />
<glyph unicode="&#xcb;" horiz-adv-x="987" d="M190 0l11 395l-11 918h740l10 -17l-14 -127l-310 7l-260 -5l-4 -430l246 -4l217 6l10 -14l-12 -127l-229 4l-234 -2l-2 -194l6 -273l262 -2l314 8l10 -16l-12 -127h-738zM313 1614q0 41 24.5 66.5t68.5 25.5q41 0 63.5 -22.5t22.5 -63.5q0 -43 -25 -69.5t-68 -26.5 q-41 0 -63.5 24.5t-22.5 65.5zM635 1614q0 41 24.5 66.5t67.5 25.5q41 0 63.5 -22.5t22.5 -63.5q0 -43 -24.5 -69.5t-67.5 -26.5q-41 0 -63.5 24.5t-22.5 65.5z" />
<glyph unicode="&#xcc;" horiz-adv-x="548" d="M49 1669l41 96l19 4q182 -106 393 -210l-29 -74l-20 -8q-217 92 -400 176zM190 0l11 395l-11 918h168l-10 -903l8 -410h-166z" />
<glyph unicode="&#xcd;" horiz-adv-x="548" d="M102 1557q211 104 393 211l19 -4l41 -97l-4 -16q-182 -84 -400 -176l-20 8zM190 0l11 395l-11 918h168l-10 -903l8 -410h-166z" />
<glyph unicode="&#xce;" horiz-adv-x="548" d="M12 1571q138 94 238 186h47q92 -82 240 -186l-33 -70h-19q-115 70 -211 135q-80 -55 -208 -135h-21zM190 0l11 395l-11 918h168l-10 -903l8 -410h-166z" />
<glyph unicode="&#xd0;" horiz-adv-x="1368" d="M25 621l6 102h211l-9 590h3l473 8q280 0 430.5 -160t150.5 -459q0 -346 -162.5 -530t-465.5 -184q-201 0 -426 12h-3l13 395l-2 211h-211zM393 410l4 -273q147 -12 291 -12q211 0 322.5 136t111.5 407q0 516 -424 516q-135 0 -299 -8l-4 -453h297l8 -14l-6 -103h-299z " />
<glyph unicode="&#xd1;" horiz-adv-x="1398" d="M190 0l11 389l-6 924h172l675 -1051h15l-2 1043l155 12l-12 -932l4 -385h-172l-678 1051h-12l-2 -619l6 -432h-154zM371 1557v14l125 141l20 7q49 -4 170 -41q127 -33 148 -33q27 0 82 59l34 35h17l49 -51v-17l-125 -141l-21 -6q-45 4 -172 41q-117 35 -145 35 q-14 0 -30.5 -13.5t-51.5 -48.5l-33 -35h-18z" />
<glyph unicode="&#xd2;" horiz-adv-x="1300" d="M78 645q0 328 152.5 504t437.5 176q268 0 412.5 -166t144.5 -477q0 -334 -153.5 -516t-436.5 -182q-266 0 -411.5 172t-145.5 489zM246 666q0 -545 399 -545q410 0 410 532q0 272 -99.5 404.5t-302.5 132.5q-407 0 -407 -524zM426 1669l41 96l18 4q183 -106 394 -210 l-29 -74l-21 -8q-217 92 -399 176z" />
<glyph unicode="&#xd3;" horiz-adv-x="1300" d="M78 645q0 328 152.5 504t437.5 176q268 0 412.5 -166t144.5 -477q0 -334 -153.5 -516t-436.5 -182q-266 0 -411.5 172t-145.5 489zM246 666q0 -545 399 -545q410 0 410 532q0 272 -99.5 404.5t-302.5 132.5q-407 0 -407 -524zM481 1557q211 104 393 211l19 -4l41 -97 l-4 -16q-182 -84 -400 -176l-20 8z" />
<glyph unicode="&#xd4;" horiz-adv-x="1300" d="M78 645q0 328 152.5 504t437.5 176q268 0 412.5 -166t144.5 -477q0 -334 -153.5 -516t-436.5 -182q-266 0 -411.5 172t-145.5 489zM246 666q0 -545 399 -545q410 0 410 532q0 272 -99.5 404.5t-302.5 132.5q-407 0 -407 -524zM389 1571q138 94 238 186h47 q92 -82 239 -186l-32 -70h-19q-115 70 -211 135q-80 -55 -209 -135h-20z" />
<glyph unicode="&#xd5;" horiz-adv-x="1300" d="M78 645q0 328 152.5 504t437.5 176q268 0 412.5 -166t144.5 -477q0 -334 -153.5 -516t-436.5 -182q-266 0 -411.5 172t-145.5 489zM246 666q0 -545 399 -545q410 0 410 532q0 272 -99.5 404.5t-302.5 132.5q-407 0 -407 -524zM330 1557v14l125 141l20 7q49 -4 170 -41 q127 -33 148 -33q27 0 82 59l34 35h17l49 -51v-17l-125 -141l-21 -6q-45 4 -172 41q-117 35 -145 35q-14 0 -30.5 -13.5t-51.5 -48.5l-33 -35h-18z" />
<glyph unicode="&#xd7;" d="M158 272v17l254 254l-254 252v20l75 66l259 -256l256 256l77 -66v-20l-252 -252l252 -252v-19l-77 -67l-256 256l-259 -256z" />
<glyph unicode="&#xd8;" horiz-adv-x="1300" d="M78 645q0 328 152.5 504t437.5 176q117 0 209 -31l88 189l98 -37l10 -21l-86 -184q238 -156 238 -559q0 -334 -153.5 -516t-436.5 -182q-125 0 -219 36l-109 -229l-100 35l-8 16l110 236q-231 162 -231 567zM246 666q0 -312 129 -445l440 942q-68 27 -162 27 q-408 0 -407 -524zM475 152q74 -31 170 -31q410 0 410 532q0 315 -135 445z" />
<glyph unicode="&#xd9;" horiz-adv-x="1282" d="M156 479l2 178l-2 656h161l-8 -813q-4 -371 334 -371q336 0 336 350l-8 834h164l-5 -668l-2 -147q4 -244 -126 -378t-371 -134q-233 0 -356 128t-119 365zM424 1669l41 96l18 4q183 -106 394 -210l-29 -74l-21 -8q-217 92 -399 176z" />
<glyph unicode="&#xda;" horiz-adv-x="1282" d="M156 479l2 178l-2 656h161l-6 -813q-4 -371 332 -371q340 0 336 350l-8 834h164l-2 -668l-3 -147q4 -242 -127 -377t-372 -135q-231 0 -355 129t-120 364zM475 1557q211 104 393 211l19 -4l41 -97l-4 -16q-182 -84 -400 -176l-20 8z" />
<glyph unicode="&#xdb;" horiz-adv-x="1282" d="M156 479l2 178l-2 656h161l-8 -813q-4 -371 334 -371q336 0 336 350l-8 834h164l-5 -668l-2 -147q4 -244 -126 -378t-371 -134q-233 0 -356 128t-119 365zM387 1571q138 94 238 186h47q92 -82 239 -186l-32 -70h-19q-115 70 -211 135q-80 -55 -209 -135h-20z" />
<glyph unicode="&#xdc;" horiz-adv-x="1282" d="M156 479l2 178l-2 656h161l-8 -813q-4 -371 334 -371q336 0 336 350l-8 834h164l-5 -668l-2 -147q4 -244 -126 -378t-371 -134q-233 0 -356 128t-119 365zM401 1614q0 41 25 66.5t68 25.5q41 0 63.5 -22.5t22.5 -63.5q0 -43 -25 -69.5t-68 -26.5q-41 0 -63.5 24.5 t-22.5 65.5zM723 1614q0 41 24.5 66.5t67.5 25.5q41 0 63.5 -22.5t22.5 -63.5q0 -43 -24.5 -69.5t-67.5 -26.5q-41 0 -63.5 24.5t-22.5 65.5z" />
<glyph unicode="&#xde;" horiz-adv-x="1075" d="M193 0l6 395l-6 918h165l-2 -228l240 2q195 0 299 -99t104 -288q0 -221 -128 -341.5t-363 -120.5l-156 -2l4 -236h-163zM350 373l217 -4q262 47 262 319q0 254 -270 266l-205 -6l-4 -538v-37z" />
<glyph unicode="&#xdf;" horiz-adv-x="1153" d="M72 840l10 96h137v98q0 195 108.5 301.5t299.5 106.5q156 0 241.5 -72t85.5 -192q0 -80 -32.5 -132.5t-96.5 -113.5q-51 -49 -76.5 -87t-25.5 -87q0 -68 46 -112t142 -101q74 -43 118 -76t75 -83t31 -118q0 -78 -40 -142.5t-116 -103t-180 -38.5q-143 0 -271 67l23 139 l16 13q115 -102 244 -103q80 0 128 41t48 101q0 57 -43 96t-131 92q-78 47 -125 83t-81 90t-34 128q0 76 33 124t96 103q59 53 88 94.5t29 104.5q0 80 -53 123t-145 43q-117 0 -181.5 -69.5t-66.5 -202.5l-8 -645l10 -406h-162l12 389l-4 438h-141z" />
<glyph unicode="&#xe0;" horiz-adv-x="946" d="M86 242q0 174 190 219l332 78l2 133q0 80 -42 123t-119 43q-135 0 -289 -136l-17 9l-22 116q174 127 352 127q131 0 209 -65.5t78 -179.5q0 -35 -12 -252q-14 -190 -15 -254q0 -45 14.5 -62.5t51.5 -17.5q31 0 67 12l17 -14l-15 -92q-59 -35 -116 -41q-133 12 -144 151 h-12q-111 -113 -219 -153q-137 0 -214 68.5t-77 187.5zM231 264q0 -68 38 -105.5t100 -37.5q113 0 231 145l6 168l-297 -72q-41 -10 -59.5 -32.5t-18.5 -65.5zM248 1339l61 86l19 2q135 -133 336 -297l-46 -65l-18 -2q-145 102 -348 260z" />
<glyph unicode="&#xe1;" horiz-adv-x="946" d="M86 242q0 174 190 219l332 78l2 133q0 80 -42 123t-119 43q-133 0 -289 -136l-17 9l-20 116q170 127 350 127q133 0 210 -65.5t77 -179.5q0 -35 -12 -252t-13 -254q0 -45 14.5 -62.5t49.5 -17.5q31 0 69 12l17 -14l-17 -92q-59 -35 -116 -41q-63 6 -101.5 45t-40.5 106 h-14q-111 -113 -219 -153q-137 0 -214 68.5t-77 187.5zM231 264q0 -68 38 -105.5t102 -37.5q113 0 229 145l6 168l-297 -72q-41 -12 -59.5 -33.5t-18.5 -64.5zM306 1130q201 164 335 297l19 -2l61 -86l-4 -16q-203 -158 -348 -260l-18 2z" />
<glyph unicode="&#xe2;" horiz-adv-x="946" d="M86 242q0 174 190 219l332 78l2 133q0 80 -42 123t-119 43q-135 0 -289 -136l-17 9l-22 116q174 127 352 127q131 0 209 -65.5t78 -179.5q0 -35 -12 -252q-14 -190 -15 -254q0 -45 14.5 -62.5t51.5 -17.5q31 0 67 12l17 -14l-15 -92q-59 -35 -116 -41q-133 12 -144 151 h-12q-111 -113 -219 -153q-137 0 -214 68.5t-77 187.5zM184 1137q117 116 250 274h49q127 -158 248 -274l-45 -66h-18q-127 121 -209 213q-78 -86 -209 -213h-21zM231 264q0 -68 38 -105.5t100 -37.5q113 0 231 145l6 168l-297 -72q-41 -10 -59.5 -32.5t-18.5 -65.5z" />
<glyph unicode="&#xe3;" horiz-adv-x="946" d="M86 242q0 174 190 219l332 78l2 133q0 80 -42 123t-119 43q-133 0 -289 -136l-17 9l-20 116q170 127 350 127q133 0 210 -65.5t77 -179.5q0 -35 -12 -252t-13 -254q0 -45 14.5 -62.5t49.5 -17.5q31 0 69 12l17 -14l-17 -92q-59 -35 -116 -41q-63 6 -101.5 45t-40.5 106 h-14q-111 -113 -219 -153q-137 0 -214 68.5t-77 187.5zM133 1184v14l125 141l20 7q49 -4 170 -41q127 -33 148 -33q27 0 82 59l34 35h17l49 -51v-17l-125 -141l-21 -6q-45 4 -172 41q-117 35 -145 35q-14 0 -30.5 -13.5t-51.5 -48.5l-33 -35h-18zM231 264q0 -68 38 -105.5 t102 -37.5q113 0 229 145l6 168l-297 -72q-41 -12 -59.5 -33.5t-18.5 -64.5z" />
<glyph unicode="&#xe4;" horiz-adv-x="946" d="M86 242q0 174 190 219l332 78l2 133q0 80 -42 123t-119 43q-135 0 -289 -136l-17 9l-22 116q174 127 352 127q131 0 209 -65.5t78 -179.5q0 -35 -12 -252q-14 -190 -15 -254q0 -45 14.5 -62.5t51.5 -17.5q31 0 67 12l17 -14l-15 -92q-59 -35 -116 -41q-133 12 -144 151 h-12q-111 -113 -219 -153q-137 0 -214 68.5t-77 187.5zM209 1241q0 41 24.5 66.5t67.5 25.5q41 0 63.5 -22.5t22.5 -63.5q0 -43 -24.5 -69.5t-67.5 -26.5q-41 0 -63.5 24.5t-22.5 65.5zM231 264q0 -68 38 -105.5t100 -37.5q113 0 231 145l6 168l-297 -72 q-41 -10 -59.5 -32.5t-18.5 -65.5zM530 1241q0 41 25 66.5t68 25.5q41 0 63.5 -22.5t22.5 -63.5q0 -43 -25 -69.5t-68 -26.5q-41 0 -63.5 24.5t-22.5 65.5z" />
<glyph unicode="&#xe5;" horiz-adv-x="946" d="M86 242q0 174 190 219l332 78l2 133q0 80 -42 123t-119 43q-133 0 -289 -136l-17 9l-20 116q170 127 350 127q133 0 210 -65.5t77 -179.5q0 -35 -12 -252t-13 -254q0 -45 14.5 -62.5t49.5 -17.5q31 0 69 12l17 -14l-17 -92q-59 -35 -116 -41q-63 6 -101.5 45t-40.5 106 h-14q-111 -113 -219 -153q-137 0 -214 68.5t-77 187.5zM231 264q0 -68 38 -105.5t102 -37.5q113 0 229 145l6 168l-297 -72q-41 -12 -59.5 -33.5t-18.5 -64.5zM282 1257q0 78 47 124t127 46t125 -46t45 -119q0 -80 -50 -126t-126 -46q-74 0 -121 44t-47 123zM360 1260 q0 -45 25.5 -69t68.5 -24q41 0 66.5 22.5t25.5 65.5q0 92 -94 93q-92 0 -92 -88z" />
<glyph unicode="&#xe6;" horiz-adv-x="1388" d="M80 244q0 92 49 150.5t141 72.5l328 55v150q0 80 -41 123t-117 43q-125 0 -284 -136l-17 9l-24 116q170 127 344 127q96 0 157.5 -40t88.5 -107q109 145 299 145q149 0 239 -99t84 -286l-18 -22l-580 -99q16 -340 277 -340q139 0 262 95l16 -8l-18 -134 q-129 -76 -273 -75q-231 0 -334 202q-113 -143 -278 -200q-139 0 -220 68.5t-81 189.5zM225 260q0 -66 41 -101.5t105 -35.5q57 0 110.5 33.5t132.5 119.5q-14 100 -16 148l-268 -53q-104 -18 -105 -111zM729 545l451 86q-6 100 -59.5 155.5t-139.5 55.5q-70 0 -128 -39 t-91 -103.5t-33 -142.5v-12z" />
<glyph unicode="&#xe7;" horiz-adv-x="788" d="M86 463q0 227 110.5 359t305.5 132q137 0 252 -55l-29 -141l-18 -6q-111 70 -211 69q-121 0 -188.5 -92t-67.5 -258t70.5 -261t193.5 -95q118 -1 231 69l17 -10l-17 -137q-117 -47 -223 -53l-27 -88l70 -41q78 -45 78 -115q0 -59 -46 -97t-120 -38q-88 0 -148 63l15 82 l10 2q57 -63 117 -63q29 0 46 14t17 41t-43 51l-98 60l37 133q-158 23 -246 147.5t-88 327.5z" />
<glyph unicode="&#xe8;" horiz-adv-x="925" d="M86 463q0 225 119 357t319 132q154 0 240 -93t86 -259q0 -57 -6 -94l-33 -27l-571 -2v-6q0 -170 70.5 -263t209.5 -93q141 0 275 92l18 -10l-18 -138q-145 -76 -285 -75q-201 0 -312.5 128t-111.5 351zM250 586l448 12l4 25q0 106 -51 160.5t-139 54.5q-104 0 -173 -65.5 t-89 -186.5zM293 1339l61 86l19 2q135 -133 336 -297l-45 -65l-19 -2q-145 102 -348 260z" />
<glyph unicode="&#xe9;" horiz-adv-x="925" d="M86 463q0 227 119 358t321 131q154 0 239 -93t85 -259l-4 -94l-35 -27l-571 -2v-6q0 -170 70.5 -263t209.5 -93q141 0 275 92l18 -10l-16 -138q-147 -76 -285 -75q-201 0 -313.5 128t-112.5 351zM250 586l450 12l5 25q0 106 -52.5 160.5t-140.5 54.5q-104 0 -173 -65.5 t-89 -186.5zM353 1130q201 164 335 297l19 -2l61 -86l-4 -16q-203 -158 -348 -260l-18 2z" />
<glyph unicode="&#xea;" horiz-adv-x="925" d="M86 463q0 225 119 357t319 132q154 0 240 -93t86 -259q0 -57 -6 -94l-33 -27l-571 -2v-6q0 -170 70.5 -263t209.5 -93q141 0 275 92l18 -10l-18 -138q-145 -76 -285 -75q-201 0 -312.5 128t-111.5 351zM229 1137q119 119 250 274h49q127 -158 248 -274l-45 -66h-18 q-127 121 -209 213q-78 -86 -209 -213h-21zM250 586l448 12l4 25q0 106 -51 160.5t-139 54.5q-104 0 -173 -65.5t-89 -186.5z" />
<glyph unicode="&#xeb;" horiz-adv-x="925" d="M86 463q0 225 119 357t319 132q154 0 240 -93t86 -259q0 -57 -6 -94l-33 -27l-571 -2v-6q0 -170 70.5 -263t209.5 -93q141 0 275 92l18 -10l-18 -138q-145 -76 -285 -75q-201 0 -312.5 128t-111.5 351zM250 586l448 12l4 25q0 106 -51 160.5t-139 54.5q-104 0 -173 -65.5 t-89 -186.5zM254 1241q0 41 24.5 66.5t67.5 25.5q41 0 63.5 -22.5t22.5 -63.5q0 -43 -24.5 -69.5t-67.5 -26.5q-41 0 -63.5 24.5t-22.5 65.5zM575 1241q0 41 25 66.5t68 25.5q41 0 63.5 -22.5t22.5 -63.5q0 -43 -24.5 -69.5t-67.5 -26.5q-41 0 -64 24.5t-23 65.5z" />
<glyph unicode="&#xec;" horiz-adv-x="487" d="M37 1339l61 86l19 2q135 -133 336 -297l-45 -65l-19 -2q-145 102 -348 260zM162 0l10 397l-8 531l162 14l-13 -530l11 -412h-162z" />
<glyph unicode="&#xed;" horiz-adv-x="487" d="M95 1130q201 164 335 297l19 -2l61 -86l-4 -16q-203 -158 -348 -260l-18 2zM162 0l12 397l-10 531l162 14l-13 -530l11 -412h-162z" />
<glyph unicode="&#xee;" horiz-adv-x="487" d="M-27 1137q119 118 250 274h49q127 -158 248 -274l-45 -66h-18q-127 121 -209 213q-78 -86 -209 -213h-21zM162 0l10 397l-8 531l162 14l-13 -530l11 -412h-162z" />
<glyph unicode="&#xf0;" horiz-adv-x="1001" d="M88 459q0 227 109.5 354t306.5 127q94 0 174 -31q-72 133 -191 238l-249 -125l-17 6l-33 78l213 106q-109 76 -260 140v20l92 74h13q168 -74 284 -168l238 121l14 -6l35 -78l-209 -105q301 -288 301 -706q0 -248 -108.5 -384t-306.5 -136q-188 0 -297 124.5t-109 350.5z M229 459q0 -178 72 -271.5t203 -93.5q264 1 264 400q0 135 -27 243q-98 92 -229 92q-137 0 -210 -95t-73 -275z" />
<glyph unicode="&#xf1;" horiz-adv-x="1054" d="M162 0l10 397l-8 531l155 14l-2 -137h13q127 113 260 145q156 0 235.5 -71.5t77.5 -204.5l-4 -266l8 -408h-164l11 637q2 84 -39 131t-121 47q-135 0 -277 -145l-2 -258l9 -412h-162zM234 1184v14l125 141l20 7q49 -4 170 -41q127 -33 148 -33q27 0 82 59l34 35h17 l49 -51v-17l-125 -141l-21 -6q-45 4 -172 41q-117 35 -145 35q-14 0 -30.5 -13.5t-51.5 -48.5l-33 -35h-18z" />
<glyph unicode="&#xf2;" horiz-adv-x="1005" d="M86 457q0 238 111.5 367.5t314.5 129.5q193 0 298 -123.5t105 -349.5q0 -238 -111.5 -367.5t-314.5 -129.5q-193 0 -298 123.5t-105 349.5zM240 494q0 -393 260 -394q264 0 264 344q0 195 -66.5 295.5t-193.5 100.5q-129 0 -196.5 -88t-67.5 -258zM295 1339l61 86l19 2 q135 -133 336 -297l-45 -65l-19 -2q-145 102 -348 260z" />
<glyph unicode="&#xf3;" horiz-adv-x="1005" d="M86 457q0 238 111.5 367.5t316.5 129.5q191 0 296 -123.5t105 -349.5q0 -238 -110.5 -367.5t-315.5 -129.5q-193 0 -298 123.5t-105 349.5zM240 494q0 -393 260 -394q264 0 264 344q0 195 -66.5 295.5t-193.5 100.5q-129 0 -196.5 -88t-67.5 -258zM353 1130 q201 164 335 297l19 -2l61 -86l-4 -16q-203 -158 -348 -260l-18 2z" />
<glyph unicode="&#xf4;" horiz-adv-x="1005" d="M86 457q0 238 111.5 367.5t314.5 129.5q193 0 298 -123.5t105 -349.5q0 -238 -111.5 -367.5t-314.5 -129.5q-193 0 -298 123.5t-105 349.5zM231 1137q117 118 250 274h49q127 -158 248 -274l-45 -66h-18q-127 121 -209 213q-78 -86 -209 -213h-21zM240 494 q0 -393 260 -394q264 0 264 344q0 195 -66.5 295.5t-193.5 100.5q-129 0 -196.5 -88t-67.5 -258z" />
<glyph unicode="&#xf5;" horiz-adv-x="1005" d="M86 457q0 238 111.5 367.5t316.5 129.5q191 0 296 -123.5t105 -349.5q0 -238 -110.5 -367.5t-315.5 -129.5q-193 0 -298 123.5t-105 349.5zM180 1184v14l125 141l20 7q49 -4 170 -41q127 -33 148 -33q27 0 82 59l34 35h17l49 -51v-17l-125 -141l-21 -6q-45 4 -172 41 q-117 35 -145 35q-14 0 -30.5 -13.5t-51.5 -48.5l-33 -35h-18zM240 494q0 -393 260 -394q264 0 264 344q0 195 -66.5 295.5t-193.5 100.5q-129 0 -196.5 -88t-67.5 -258z" />
<glyph unicode="&#xf7;" d="M83 498l11 102h833l13 -12l-11 -103h-833zM424 179q0 40 24 65t67 25q38 0 61 -23t23 -63q0 -43 -24.5 -67.5t-66.5 -24.5q-84 0 -84 88zM424 853q0 40 24 65t67 25q38 0 61 -23t23 -63q0 -43 -24.5 -67.5t-66.5 -24.5q-84 0 -84 88z" />
<glyph unicode="&#xf8;" horiz-adv-x="1005" d="M86 457q0 238 111.5 367.5t314.5 129.5q90 0 158 -26l100 200l84 -38l10 -19l-98 -197q149 -125 149 -393q0 -238 -111.5 -367.5t-314.5 -129.5q-84 0 -155 24l-123 -246l-90 41l-6 17l123 243q-152 121 -152 394zM240 494q-1 -193 65 -293l307 614q-45 25 -108 25 q-129 0 -196.5 -88t-67.5 -258zM391 123q49 -23 109 -23q264 0 264 344q0 193 -66 293z" />
<glyph unicode="&#xf9;" horiz-adv-x="1046" d="M150 928l163 14l-10 -639q-2 -84 38 -131t118 -47q125 0 256 125v678l153 14l-10 -741q0 -43 13.5 -60.5t46.5 -17.5t71 12l17 -14l-17 -92q-55 -35 -117 -41q-125 12 -141 143h-16q-123 -111 -252 -143q-152 0 -231.5 71.5t-77.5 204.5l4 260zM315 1339l62 86l18 2 q135 -133 336 -297l-45 -65l-18 -2q-145 102 -349 260z" />
<glyph unicode="&#xfa;" horiz-adv-x="1046" d="M150 928l163 14l-12 -639q-2 -84 39 -131t119 -47q125 0 254 125v678l155 14l-12 -741q0 -43 14.5 -60.5t47.5 -17.5t71 12l15 -14l-15 -92q-59 -35 -117 -41q-125 12 -141 143h-16q-123 -111 -254 -143q-152 0 -230.5 71.5t-76.5 204.5l2 260zM373 1130q201 164 335 297 l19 -2l61 -86l-4 -16q-203 -158 -348 -260l-18 2z" />
<glyph unicode="&#xfb;" horiz-adv-x="1046" d="M150 928l163 14l-10 -639q-2 -84 38 -131t118 -47q125 0 256 125v678l153 14l-10 -741q0 -43 13.5 -60.5t46.5 -17.5t71 12l17 -14l-17 -92q-55 -35 -117 -41q-125 12 -141 143h-16q-123 -111 -252 -143q-152 0 -231.5 71.5t-77.5 204.5l4 260zM252 1137q119 118 250 274 h49q127 -158 248 -274l-45 -66h-19q-127 121 -209 213q-78 -86 -209 -213h-20z" />
<glyph unicode="&#xfc;" horiz-adv-x="1046" d="M150 928l163 14l-10 -639q-2 -84 38 -131t118 -47q125 0 256 125v678l153 14l-10 -741q0 -43 13.5 -60.5t46.5 -17.5t71 12l17 -14l-17 -92q-55 -35 -117 -41q-125 12 -141 143h-16q-123 -111 -252 -143q-152 0 -231.5 71.5t-77.5 204.5l4 260zM276 1241q0 41 25 66.5 t68 25.5q41 0 63.5 -22.5t22.5 -63.5q0 -43 -24.5 -69.5t-68.5 -26.5q-41 0 -63.5 24.5t-22.5 65.5zM598 1241q0 41 24.5 66.5t67.5 25.5q41 0 63.5 -22.5t22.5 -63.5q0 -43 -24.5 -69.5t-67.5 -26.5q-41 0 -63.5 24.5t-22.5 65.5z" />
<glyph unicode="&#xfe;" horiz-adv-x="1048" d="M172 -379l12 776l-12 1026l162 15l-6 -629h12q70 57 127 88t131 51q178 0 271.5 -117.5t93.5 -332.5q0 -246 -119 -380t-332 -134q-90 0 -184 39l4 -402h-160zM324 412l2 -242q100 -68 200 -68q131 0 207 92.5t76 272.5q0 166 -58.5 257t-166.5 91q-125 0 -258 -145z" />
<glyph unicode="&#xff;" horiz-adv-x="872" d="M-45 -289l6 21q154 29 247 90t157 178l-347 934l160 10l31 -121l223 -641h14l226 625l30 131h150l-332 -903q-68 -182 -176 -280.5t-295 -145.5h-18q-49 49 -76 102zM195 1241q0 41 24.5 66.5t67.5 25.5q41 0 63.5 -22.5t22.5 -63.5q0 -43 -24.5 -69.5t-67.5 -26.5 q-41 0 -63.5 24.5t-22.5 65.5zM516 1241q0 41 24.5 66.5t67.5 25.5q41 0 63.5 -22.5t22.5 -63.5q0 -43 -24.5 -69.5t-67.5 -26.5q-41 0 -63.5 24.5t-22.5 65.5z" />
<glyph unicode="&#x152;" horiz-adv-x="1742" d="M78 647q0 328 170 509t479 181q67 0 182 -12q111 -12 164 -12h610l11 -17l-13 -127l-295 7h-276l-2 -435l233 -4l232 6l10 -14l-14 -127l-240 4l-225 -2v-205l2 -262l256 -2l321 8l13 -16l-15 -127h-608q-45 2 -192 -12q-123 -12 -185 -13q-295 0 -456.5 176.5 t-161.5 495.5zM246 657q0 -547 467 -546q117 0 192 20q51 16 51 72l-8 895q0 68 -28 76q-23 10 -83.5 18t-121.5 8q-232 0 -350.5 -137t-118.5 -406z" />
<glyph unicode="&#x153;" horiz-adv-x="1587" d="M76 459q0 233 111.5 363t308.5 130q242 0 335 -194q113 195 355 194q153 0 239 -93t86 -259q0 -57 -6 -94l-32 -27l-582 -2v-6q0 -170 72.5 -263t218.5 -93q141 0 274 92l17 -10l-17 -138q-145 -76 -285 -75q-242 0 -348 198q-100 -199 -348 -198q-190 0 -294.5 123.5 t-104.5 351.5zM238 494q0 -393 260 -394q264 0 264 344q0 195 -66.5 295.5t-193.5 100.5q-129 0 -196.5 -88t-67.5 -258zM901 586l459 12l4 25q0 106 -51 160.5t-142 54.5q-106 0 -176.5 -65.5t-93.5 -186.5z" />
<glyph unicode="&#x178;" horiz-adv-x="1081" d="M31 1313h176l26 -74l287 -590h17l313 586l31 78h174l-457 -846l-2 -84l8 -383h-166l11 383l-3 90zM281 1614q0 41 24.5 66.5t67.5 25.5q41 0 63.5 -22.5t22.5 -63.5q0 -43 -24.5 -69.5t-67.5 -26.5q-41 0 -63.5 24.5t-22.5 65.5zM602 1614q0 41 24.5 66.5t67.5 25.5 q41 0 63.5 -22.5t22.5 -63.5q0 -43 -24.5 -69.5t-67.5 -26.5q-41 0 -63.5 24.5t-22.5 65.5z" />
<glyph unicode="&#x2c6;" horiz-adv-x="796" d="M125 1135q117 116 250 274h49q127 -158 248 -274l-45 -66h-18q-127 121 -209 213q-78 -86 -209 -213h-21z" />
<glyph unicode="&#x2dc;" horiz-adv-x="796" d="M76 1184v14l125 141l20 7q49 -4 170 -41q127 -33 148 -33q27 0 82 59l34 35h17l49 -51v-17l-125 -141l-21 -6q-45 4 -172 41q-117 35 -145 35q-14 0 -30.5 -13.5t-51.5 -48.5l-33 -35h-18z" />
<glyph unicode="&#x2000;" horiz-adv-x="900" />
<glyph unicode="&#x2001;" horiz-adv-x="1800" />
<glyph unicode="&#x2002;" horiz-adv-x="900" />
<glyph unicode="&#x2003;" horiz-adv-x="1800" />
<glyph unicode="&#x2004;" horiz-adv-x="600" />
<glyph unicode="&#x2005;" horiz-adv-x="450" />
<glyph unicode="&#x2006;" horiz-adv-x="300" />
<glyph unicode="&#x2007;" horiz-adv-x="300" />
<glyph unicode="&#x2008;" horiz-adv-x="225" />
<glyph unicode="&#x2009;" horiz-adv-x="360" />
<glyph unicode="&#x200a;" horiz-adv-x="100" />
<glyph unicode="&#x2010;" horiz-adv-x="628" d="M59 442v103l496 69l14 -14v-102l-493 -72z" />
<glyph unicode="&#x2011;" horiz-adv-x="628" d="M59 442v103l496 69l14 -14v-102l-493 -72z" />
<glyph unicode="&#x2012;" horiz-adv-x="628" d="M59 442v103l496 69l14 -14v-102l-493 -72z" />
<glyph unicode="&#x2013;" horiz-adv-x="978" d="M-31 479l11 103h1019l11 -15l-6 -100h-1022z" />
<glyph unicode="&#x2014;" horiz-adv-x="1902" d="M-33 479l10 103h1946l14 -15l-10 -100h-1947z" />
<glyph unicode="&#x2018;" horiz-adv-x="342" d="M65 1043q0 127 150 274l61 -43l2 -14q-86 -92 -86 -172q0 -82 80 -113v-16q-39 -37 -96 -70q-111 41 -111 154z" />
<glyph unicode="&#x2019;" horiz-adv-x="342" d="M68 944q86 92 86 172q0 82 -80 113v16q39 37 96 70q111 -41 111 -154q0 -127 -150 -274l-61 43z" />
<glyph unicode="&#x201a;" horiz-adv-x="468" d="M90 -168q113 88 113 180q0 55 -64 97v16q57 39 113 53q86 -53 86 -137q0 -133 -192 -274l-56 51v14z" />
<glyph unicode="&#x201c;" horiz-adv-x="591" d="M55 1045q0 127 150 274l61 -43l2 -14q-86 -92 -86 -172q0 -82 80 -113v-16q-39 -37 -96 -70q-111 41 -111 154zM323 1045q0 127 150 274l61 -43l2 -14q-86 -92 -86 -172q0 -82 80 -113v-16q-39 -37 -96 -70q-111 41 -111 154z" />
<glyph unicode="&#x201d;" horiz-adv-x="604" d="M62 944q86 92 86 172q0 82 -80 113v16q39 37 96 70q111 -41 111 -154q0 -127 -150 -274l-61 43zM324 944q86 92 86 172q0 82 -80 113v16q39 37 96 70q111 -41 111 -154q0 -127 -150 -274l-61 43z" />
<glyph unicode="&#x201e;" horiz-adv-x="739" d="M90 -168q113 88 113 180q0 55 -64 97v16q57 39 113 53q86 -53 86 -137q0 -133 -192 -274l-56 51v14zM356 -168q113 88 113 180q0 55 -64 97v16q57 39 113 53q86 -53 86 -137q0 -133 -192 -274l-56 51v14z" />
<glyph unicode="&#x2022;" horiz-adv-x="522" d="M157 534q0 49 29 78.5t80 29.5q46 0 73.5 -27.5t27.5 -75.5q0 -51 -29.5 -80.5t-79.5 -29.5q-101 0 -101 105z" />
<glyph unicode="&#x2026;" horiz-adv-x="1191" d="M133 84q0 43 26 69.5t71 26.5q41 0 65.5 -24.5t24.5 -67.5q0 -45 -26 -71.5t-71 -26.5q-90 0 -90 94zM493 84q0 43 26 69.5t71 26.5q41 0 65.5 -24.5t24.5 -67.5q0 -45 -26 -71.5t-71 -26.5q-90 0 -90 94zM852 84q0 43 26 69.5t71 26.5q41 0 65.5 -24.5t24.5 -67.5 q0 -45 -26 -71.5t-71 -26.5q-90 0 -90 94z" />
<glyph unicode="&#x202f;" horiz-adv-x="360" />
<glyph unicode="&#x2039;" horiz-adv-x="468" d="M43 443v32l297 357l80 -45l2 -21l-254 -305l254 -305l-2 -18l-80 -46z" />
<glyph unicode="&#x203a;" horiz-adv-x="481" d="M55 160l254 305l-254 305l2 18l80 46l297 -351v-32l-297 -357l-80 45z" />
<glyph unicode="&#x205f;" horiz-adv-x="450" />
<glyph unicode="&#x20ac;" horiz-adv-x="993" d="M33 340l6 86h141l-2 70q0 45 2 67h-139l-8 10l6 86h154q37 178 153.5 272.5t304.5 94.5q152 0 273 -74l-25 -108l-14 -4q-104 76 -242 75q-256 0 -311 -256h381l8 -10l-6 -86h-393l-3 -57q0 -55 3 -80h391l8 -10l-6 -86h-377q66 -227 295 -228q147 0 264 82l18 -10 l-12 -106q-135 -80 -276 -80q-360 0 -434 342h-152z" />
<glyph unicode="&#x2122;" horiz-adv-x="1191" d="M55 1243l6 68h365l6 -8l-6 -66l-92 4h-43l-4 -260l4 -152h-90l4 144l-2 268h-43l-99 -4zM518 829l53 482h109l22 -72l93 -240h6l102 240l25 72h102l49 -482h-80l-12 146l-20 199h-9l-127 -293h-73l-119 293h-6l-25 -189l-12 -156h-78z" />
<glyph unicode="&#x25fc;" horiz-adv-x="942" d="M0 0v942h942v-942h-942z" />
</font>
</defs>
</svg>
